<svg width="17" height="19" viewBox="0 0 17 19" fill="none" xmlns="http://www.w3.org/2000/svg">
<path d="M2.60714 1H10.1071H14.3929C15.6786 1 16 2 16 2.5V9V17C16 17.8 15.2857 18 14.9286 18H2.60714C1.32143 18 1 17.3333 1 17V2.5C1 1.3 2.07143 1 2.60714 1Z" fill="#FF6240" stroke="#FF6240"/>
<rect x="2.60718" y="9.5" width="3.21429" height="1" rx="0.5" fill="white"/>
<rect x="2.60718" y="13.5" width="11.7857" height="1" rx="0.5" fill="white"/>
<path d="M8.5 9.80373L9.36386 8.08944L13.1736 4.30373C13.3176 4.16087 13.7018 3.80371 14.3929 3.80371C15.0839 3.80371 14.6808 4.37514 14.3929 4.80371L10.2277 8.94659L8.5 9.80373Z" fill="white" stroke="white" stroke-width="0.5"/>
</svg>
