<svg width="18" height="18" viewBox="0 0 18 18" fill="none" xmlns="http://www.w3.org/2000/svg">
<path d="M12.2 17.5V13.424C12.2 12.5659 11.8649 11.7413 11.2657 11.132C10.6662 10.5225 9.85142 10.1785 9 10.1785C8.14858 10.1785 7.33376 10.5225 6.73431 11.132C6.13514 11.7413 5.8 12.5659 5.8 13.424V17.5H1.8C1.45794 17.5 1.12817 17.3619 0.883707 17.1133C0.638962 16.8644 0.5 16.5251 0.5 16.1696V6.22332C0.499998 5.992 0.558926 5.76508 0.670485 5.56472C0.782015 5.3644 0.942088 5.19788 1.13432 5.08059L8.33432 0.687675L8.09498 0.295392L8.33432 0.687673C8.53601 0.564617 8.76608 0.5 9 0.5C9.23392 0.5 9.46399 0.564617 9.66568 0.687673L9.9261 0.260847L9.66568 0.687675L16.8657 5.08059C17.0579 5.19788 17.218 5.3644 17.3295 5.56472C17.4411 5.76508 17.5 5.992 17.5 6.22331V16.1696C17.5 16.5251 17.361 16.8644 17.1163 17.1133C16.8718 17.3619 16.5421 17.5 16.2 17.5H12.2Z" stroke="#828282"/>
</svg>
