<svg width="16" height="18" viewBox="0 0 16 18" fill="none" xmlns="http://www.w3.org/2000/svg">
<path d="M11.2093 4.13195C11.2093 6.16989 9.67212 7.76389 7.84515 7.76389C6.01818 7.76389 4.48096 6.16989 4.48096 4.13195C4.48096 2.094 6.01818 0.5 7.84515 0.5C9.67212 0.5 11.2093 2.094 11.2093 4.13195Z" fill="#FF6240" stroke="#FF6240"/>
<path d="M7.95555 9.97586L4.80899 9.2085C2.64504 9.2085 1.36802 10.9793 1 11.8647V16.1738C1.22081 16.7877 1.82804 16.9805 2.10406 17.0002H13.8622C14.7455 16.9057 14.8559 16.4099 14.8007 16.1738V11.8647C14.7124 10.0703 12.0406 9.34623 10.7157 9.2085L7.95555 9.97586Z" fill="#FF6240" stroke="#FF6240"/>
</svg>
